<svg width="24" height="25" viewBox="0 0 24 25" fill="none" xmlns="http://www.w3.org/2000/svg">
<path fill-rule="evenodd" clip-rule="evenodd" d="M19.102 15.1003C19.2271 15.041 19.3638 15.0103 19.5023 15.0103C19.6408 15.0103 19.7776 15.041 19.9027 15.1003C20.0243 15.158 20.132 15.2412 20.2185 15.3443C20.264 15.3973 20.3262 15.4668 20.4007 15.55C20.6741 15.8551 21.1127 16.3447 21.496 16.8858C21.9779 17.5661 22.5 18.494 22.5 19.4683C22.5 21.1289 21.1703 22.5101 19.5 22.5101C17.8308 22.5101 16.5 21.1352 16.5 19.4683C16.5 18.4927 17.0256 17.5643 17.5089 16.8847C17.8857 16.3548 18.32 15.8688 18.5923 15.5642C18.6722 15.4747 18.7382 15.4009 18.7846 15.3461C18.8714 15.2422 18.9796 15.1583 19.102 15.1003ZM19.503 16.7981C19.2651 17.0672 18.9937 17.385 18.7314 17.7539C18.283 18.3845 18 18.9856 18 19.4683C18 20.3327 18.6849 21.0101 19.5 21.0101C20.314 21.0101 21 20.3287 21 19.4683C21 18.9844 20.7182 18.3827 20.272 17.7528C20.0123 17.3863 19.7409 17.0672 19.503 16.7981Z" fill="#21272A"/>
<path fill-rule="evenodd" clip-rule="evenodd" d="M5.16413 1.68587C5.46042 1.56284 5.77807 1.49951 6.09888 1.49951C6.41969 1.49951 6.73734 1.56284 7.03362 1.68587C7.32918 1.80859 7.59767 1.98831 7.82378 2.21477C7.82433 2.21532 7.82489 2.21588 7.82544 2.21643L18.6648 12.9692C18.6657 12.97 18.6666 12.9709 18.6675 12.9718C18.8162 13.1181 18.9183 13.3053 18.9607 13.5097C19.0034 13.7153 18.9838 13.929 18.9045 14.1234C18.8251 14.3178 18.6897 14.4842 18.5153 14.6013C18.341 14.7183 18.1357 14.7807 17.9257 14.7805L17.9264 14.0305V14.7805H17.9257H17.9123C17.6908 14.7805 17.4785 14.7948 17.3072 14.8298C17.1464 14.8627 17.0935 14.8995 17.0928 14.8985C17.0927 14.8984 17.0929 14.8982 17.0932 14.8978C17.0946 14.8964 17.096 14.895 17.0973 14.8937C17.0953 14.8957 17.0939 14.897 17.0932 14.8978C16.7214 15.2688 13.738 18.1572 11.8346 20C11.5849 20.2417 11.3538 20.4654 11.1496 20.6631L11.1494 20.6634C10.7656 21.0346 10.253 21.2427 9.7191 21.2441C9.18519 21.2454 8.6715 21.0399 8.28584 20.6707L8.28542 20.6703L2.13433 14.763L2.13366 14.7624C1.93622 14.5718 1.77879 14.3438 1.67059 14.0916C1.56239 13.8394 1.50559 13.5682 1.50354 13.2938C1.50148 13.0194 1.5542 12.7474 1.6586 12.4936C1.7629 12.2401 1.9167 12.0099 2.11099 11.8165L2.11049 11.817L2.64044 12.3477L2.11156 11.8159L6.07842 7.85479L7.13908 8.91545L3.16986 12.879L3.16932 12.8795C3.11626 12.9323 3.07426 12.9951 3.04579 13.0643C3.01731 13.1335 3.00293 13.2077 3.00349 13.2825C3.00406 13.3574 3.01954 13.4314 3.04905 13.5001C3.07846 13.5687 3.12121 13.6307 3.1748 13.6825L3.17401 13.6818L2.65457 14.2226L3.17535 13.6831L9.32317 19.5872L8.8045 20.129L9.32401 19.588L9.32363 19.5877C9.42907 19.6884 9.5694 19.7444 9.71524 19.7441C9.86129 19.7437 10.0015 19.6868 10.1065 19.5852C10.1064 19.5853 10.1063 19.5854 10.1062 19.5855L10.6279 20.1243L10.1065 19.5852C10.3102 19.388 10.54 19.1655 10.7879 18.9255C12.7024 17.072 15.6931 14.1766 16.0367 13.833C16.3074 13.5623 16.6609 13.4379 16.943 13.3739L17.6124 14.038C17.6137 14.0393 17.615 14.0406 17.6164 14.0419L18.1406 13.5055L17.6124 14.038C17.5514 13.9769 17.5096 13.8993 17.492 13.8147C17.4741 13.7283 17.4823 13.6384 17.5156 13.5567C17.549 13.475 17.6059 13.4051 17.6792 13.3559C17.7484 13.3094 17.8292 13.2834 17.9123 13.2808C17.917 13.2806 17.9216 13.2805 17.9263 13.2805M17.9263 13.2805H17.9123C17.6417 13.2805 17.3173 13.2967 17.0069 13.3602C16.986 13.3644 16.9647 13.369 16.943 13.3739L9.78549 6.27365L10.3436 5.71555L9.28331 4.65451L8.72016 5.21684L6.76446 3.27678L6.76294 3.27525C6.67585 3.18785 6.57235 3.1185 6.4584 3.07119C6.34444 3.02387 6.22227 2.99951 6.09888 2.99951C5.97549 2.99951 5.85332 3.02387 5.73936 3.07119C5.62541 3.1185 5.52191 3.18785 5.43482 3.27525L5.43436 3.27571L5.19203 3.51804L5.19157 3.5185C5.10417 3.6056 5.03482 3.70909 4.9875 3.82304C4.94019 3.937 4.91583 4.05917 4.91583 4.18256C4.91583 4.30595 4.94019 4.42812 4.9875 4.54208C5.03482 4.65603 5.10417 4.75953 5.19157 4.84662L5.19203 4.84708L7.13984 6.79489L6.07842 7.85479L4.13275 5.90912L4.66216 5.37787L4.13183 5.9082L4.13224 5.90862C3.90524 5.68227 3.72512 5.41337 3.60218 5.11731C3.47916 4.82102 3.41583 4.50337 3.41583 4.18256C3.41583 3.86175 3.47916 3.5441 3.60218 3.24782C3.72511 2.95177 3.90523 2.68288 4.13221 2.45654L4.13183 2.45692L4.66216 2.98725L4.13275 2.456L4.37232 2.21643L4.90354 2.74582L4.37324 2.21551L4.37286 2.21589C4.5992 1.98891 4.86809 1.80879 5.16413 1.68587M7.14138 6.79643L7.13984 6.79489L8.72016 5.21684L8.72057 5.21724L7.14138 6.79643ZM9.78508 6.27325L7.13908 8.91545L7.14138 8.91775L9.78549 6.27365L9.78508 6.27325Z" fill="#21272A"/>
</svg>
