<svg width="24" height="25" viewBox="0 0 24 25" fill="none" xmlns="http://www.w3.org/2000/svg">
<path d="M12 20.6187H18C18.2652 20.6187 18.5196 20.5133 18.7071 20.3258C18.8946 20.1382 19 19.8839 19 19.6187V5.61865C19 5.35344 18.8946 5.09908 18.7071 4.91155C18.5196 4.72401 18.2652 4.61865 18 4.61865H6C5.73478 4.61865 5.48043 4.72401 5.29289 4.91155C5.10536 5.09908 5 5.35344 5 5.61865V19.6187C5 19.8839 5.10536 20.1382 5.29289 20.3258C5.48043 20.5133 5.73478 20.6187 6 20.6187H10V10.6187H5V8.61865H19V10.6187H12V20.6187ZM6 2.61865H18C18.7956 2.61865 19.5587 2.93472 20.1213 3.49733C20.6839 4.05994 21 4.823 21 5.61865V19.6187C21 20.4143 20.6839 21.1774 20.1213 21.74C19.5587 22.3026 18.7956 22.6187 18 22.6187H6C5.20435 22.6187 4.44129 22.3026 3.87868 21.74C3.31607 21.1774 3 20.4143 3 19.6187V5.61865C3 4.823 3.31607 4.05994 3.87868 3.49733C4.44129 2.93472 5.20435 2.61865 6 2.61865V2.61865Z" fill="#21272A"/>
</svg>
