<svg width="24" height="24" viewBox="0 0 24 24" fill="none" xmlns="http://www.w3.org/2000/svg">
<path d="M9.00001 7.00021H18C18.2652 7.00021 18.5196 7.10557 18.7071 7.29311C18.8947 7.48064 19 7.735 19 8.00021C19 8.26543 18.8947 8.51979 18.7071 8.70732C18.5196 8.89486 18.2652 9.00021 18 9.00021H9.00001C8.73479 9.00021 8.48044 8.89486 8.2929 8.70732C8.10536 8.51979 8.00001 8.26543 8.00001 8.00021C8.00001 7.735 8.10536 7.48064 8.2929 7.29311C8.48044 7.10557 8.73479 7.00021 9.00001 7.00021ZM9.00001 15.0002H18C18.2652 15.0002 18.5196 15.1056 18.7071 15.2931C18.8947 15.4806 19 15.735 19 16.0002C19 16.2654 18.8947 16.5198 18.7071 16.7073C18.5196 16.8949 18.2652 17.0002 18 17.0002H9.00001C8.73479 17.0002 8.48044 16.8949 8.2929 16.7073C8.10536 16.5198 8.00001 16.2654 8.00001 16.0002C8.00001 15.735 8.10536 15.4806 8.2929 15.2931C8.48044 15.1056 8.73479 15.0002 9.00001 15.0002ZM9.00001 11.0002H18C18.2652 11.0002 18.5196 11.1056 18.7071 11.2931C18.8947 11.4806 19 11.735 19 12.0002C19 12.2654 18.8947 12.5198 18.7071 12.7073C18.5196 12.8949 18.2652 13.0002 18 13.0002H9.00001C8.73479 13.0002 8.48044 12.8949 8.2929 12.7073C8.10536 12.5198 8.00001 12.2654 8.00001 12.0002C8.00001 11.735 8.10536 11.4806 8.2929 11.2931C8.48044 11.1056 8.73479 11.0002 9.00001 11.0002ZM5.43801 6.84521H6.15801L6.11101 9.00021H5.65001L5.70001 7.28021H5.22401L5.43801 6.84521ZM5.52301 11.5902L5.07301 11.5372C5.08401 11.2932 5.16301 11.0982 5.30701 10.9552C5.38049 10.8839 5.46762 10.8282 5.56316 10.7915C5.65871 10.7547 5.7607 10.7376 5.86301 10.7412C6.00201 10.7412 6.12601 10.7712 6.23301 10.8302C6.34196 10.8904 6.43199 10.9797 6.49301 11.0882C6.55523 11.1915 6.58872 11.3096 6.59001 11.4302C6.58564 11.5821 6.54629 11.731 6.47501 11.8652C6.40001 12.0182 6.26401 12.1952 6.06801 12.4002L5.91001 12.5702H6.55701V13.0002H5.01401L5.02901 12.7692L5.69501 12.0892C5.85301 11.9292 5.95801 11.8012 6.00801 11.7072C6.05228 11.6328 6.07768 11.5487 6.08201 11.4622C6.08323 11.4308 6.0779 11.3994 6.06637 11.3702C6.05483 11.3409 6.03734 11.3144 6.01501 11.2922C5.99128 11.2695 5.96318 11.2518 5.9324 11.2403C5.90163 11.2288 5.86883 11.2236 5.83601 11.2252C5.80157 11.2244 5.76739 11.2313 5.73591 11.2453C5.70444 11.2593 5.67647 11.2801 5.65401 11.3062C5.62001 11.3442 5.57701 11.4382 5.52301 11.5902ZM6.50501 15.9882C6.58501 16.0942 6.62601 16.2182 6.62601 16.3612C6.62731 16.4605 6.60748 16.5589 6.56782 16.65C6.52817 16.741 6.4696 16.8226 6.39601 16.8892C6.2388 17.0343 6.03078 17.1115 5.81701 17.1042C5.71727 17.1079 5.61779 17.0919 5.52426 17.0571C5.43074 17.0222 5.34501 16.9693 5.27201 16.9012C5.13001 16.7652 5.05201 16.5812 5.08901 16.2982L5.54501 16.3402C5.56001 16.4412 5.59501 16.5142 5.64501 16.5602C5.69871 16.6067 5.76806 16.631 5.83901 16.6282C5.92201 16.6282 5.98901 16.6022 6.04201 16.5502C6.06793 16.5259 6.08845 16.4965 6.10224 16.4637C6.11602 16.431 6.12276 16.3957 6.12201 16.3602C6.12191 16.3192 6.11196 16.2788 6.09299 16.2424C6.07402 16.2061 6.04659 16.1748 6.01301 16.1512C5.93801 16.0912 5.82601 16.0612 5.62701 16.0082L5.67301 15.6072C5.74255 15.6047 5.81117 15.5905 5.87601 15.5652C5.91313 15.5484 5.94495 15.5218 5.96801 15.4882C5.98866 15.4589 5.99983 15.424 6.00001 15.3882C6.00075 15.3679 5.99712 15.3476 5.98936 15.3288C5.98159 15.31 5.96988 15.2931 5.95501 15.2792C5.92016 15.2483 5.87449 15.2325 5.82801 15.2352C5.78098 15.235 5.73523 15.2505 5.69801 15.2792C5.65972 15.3071 5.63162 15.3468 5.61801 15.3922L5.57001 15.4272L5.12601 15.3712C5.14047 15.2169 5.20551 15.0717 5.31101 14.9582C5.37944 14.8872 5.46191 14.8313 5.55316 14.7939C5.64441 14.7565 5.74244 14.7386 5.84101 14.7412C6.03001 14.7412 6.19101 14.8012 6.32001 14.9232C6.3816 14.9779 6.43085 15.045 6.46447 15.1202C6.49809 15.1954 6.51532 15.2769 6.51501 15.3592C6.51566 15.4624 6.48535 15.5634 6.42801 15.6492C6.37201 15.7342 6.29201 15.8022 6.18201 15.7692C6.31026 15.8059 6.42343 15.8827 6.50501 15.9882Z" fill="#007AFF"/>
</svg>
